<svg id="Layer_2" data-name="Layer 2" xmlns="http://www.w3.org/2000/svg" viewBox="0 0 266.7 26.14"><path d="M3.42 2.74C2.32 1.89 1.27 1.07 0 .09c1.17-.31 1.85.27 2.39.7.99.81 1.94 1.53 3.27 1.68.57.07 1.08.52 1.63.78 2.28 1.11 4.52 2.3 6.85 3.28 1.25.53 2.64.72 3.97 1.04 1.65.4 3.3.91 4.98 1.15 2.64.37 5.3.57 7.96.79 3.38.29 6.77.54 10.15.79 2.88.2 5.76.41 8.64.53 1.59.06 3.19-.09 4.79-.08.83 0 1.65.19 2.48.24 5.19.3 10.39.6 15.58.84 1.13.05 2.26-.15 3.39-.15 1.7 0 3.4.1 5.1.09.63 0 1.25-.22 1.88-.25.5-.03 1 .12 1.5.12 1.96.02 3.92-.02 5.87.03 1.05.03 2.11.15 3.16.28 1.62.21 3.23.53 4.86.67 1.47.13 2.7.66 3.86 1.56.85.66 1.91 1.05 2.82 1.65 1.49.96 2.54 2.31 3.22 3.94.11.26.28.5.57 1 .5-.38 1-.69 1.4-1.08 1.4-1.35 2.82-2.63 4.91-2.77.54-.04 1.07-.21 1.6-.31 2.71-.51 5.41-1.02 8.12-1.52 2.15-.39 4.29-.79 6.45-1.14 2.79-.46 5.6-.78 8.37-1.32 2.74-.54 5.59-.57 8.21-1.76.31-.14 1.21.46 1.47.93.38.68.82.84 1.51.92 1.71.22 3.26-.36 4.85-.79 1.94-.53 3.91-1 5.86-1.51.21-.06.42-.17.61-.29 1.06-.68 2.19-1.04 3.46-1.01.67.02 1.34-.14 2.01-.16 1.53-.04 2.65.81 3.71 1.78.21.19.63.33.88.25 1.77-.53 3.49-1.22 5.28-1.66 1.39-.34 2.85-.53 4.29-.57 4.05-.12 8.11-.1 12.16-.18 2.2-.04 4.4-.18 6.6-.23 1.98-.04 3.96.03 5.94-.05 1.65-.06 3.3-.29 4.96-.4.37-.03.75.17 1.12.16 2.08-.05 4.16-.15 6.24-.19 2.54-.05 5.07.02 7.61-.08 4.92-.19 9.83-.47 14.74-.68 1.99-.09 3.98-.04 5.97-.13 2.6-.12 5.19-.33 7.79-.47 2.33-.13 4.67-.16 7-.34.98-.08 1.93-.42 2.89-.65.54-.13 1.08-.29 1.62-.44.05.09.09.17.14.26-.16.14-.3.31-.49.41-2.35 1.29-4.79 1.99-7.54 1.96-2.53-.03-5.05.49-7.59.6-5.53.24-11.06.33-16.59.58-2.98.14-5.95.52-8.92.76-1.06.08-2.12.02-3.19.05-2.82.09-5.64.2-8.47.3-1.09.04-2.18 0-3.26.09-1.62.12-3.24.42-4.86.47-3.67.1-7.33.06-11 .12-4.63.07-9.27-.28-13.87.48-.94.16-1.87.73-2.78.67-1.38-.1-2.4.61-3.29 1.31-.88.69-1.68 1.79-1.96 2.85-.31 1.18-.99 1.76-2 2.41-.23-.61-.51-1.17-.65-1.75-.22-.89-.31-1.81-.52-2.71-.13-.55-.31-1.09-.56-1.59-.38-.75-1-.85-1.86-.79-3.51.22-6.76 1.45-10.11 2.33-2.61.69-5.36 1.09-8.12.61-.23-.04-.67.11-.71.26-.46 1.51-1.64 2.38-2.78 3.3-.55.44-1 .99-1.51 1.48-1.6 1.53-3.61 2.14-5.72 2.4-1.02.12-2.11.05-3.11-.18-1.62-.37-2.3-1.93-2.09-3.53.17-1.28.78-2.17 1.69-2.98-.05-.09-.09-.18-.14-.28-1.14.16-2.28.28-3.41.47-2.57.42-5.13.85-7.69 1.32-2.68.49-5.38.93-8.03 1.56-2.51.6-4.06 2.41-5.2 4.63-.55 1.07-1.14 2.12-1.72 3.17l-.43-.04c-.22-.43-.51-.84-.66-1.29-.7-2.05-2-3.61-3.5-5.18-1.66-1.74-3.66-2.73-5.76-3.54-1.71-.67-3.6-.92-5.42-1.27-1.45-.28-2.92-.47-4.39-.62-1.56-.16-3.13-.25-4.7-.31-4.11-.17-8.23-.27-12.34-.46-4.53-.21-9.05-.49-13.57-.74-2.3-.13-4.61-.23-6.91-.37-1.25-.08-2.49-.29-3.74-.35-2.11-.09-4.23-.08-6.35-.14-1.73-.05-3.46-.14-5.19-.23-1.31-.07-2.63-.07-3.93-.24-3.69-.48-7.41-.84-11.05-1.61-3.94-.83-7.9-1.72-11.44-3.85-1.16-.7-6.04-3-5.86-3.14Zm143.61 10.41c-1.32.3-2.48.53-3.62.82-2.21.57-4.42 1.14-6.36 2.44-.67.45-1.07 1.1-.73 1.78.18.36.94.51 1.46.59 2.27.32 3.93-1.12 5.78-2.03 1.57-.77 2.71-1.88 3.47-3.6Z" style="fill:#fff" id="Layer_1-2" data-name="Layer 1"/></svg>